PathFileType	4	(X/Y/Z)	W12_1_OpenSim.trc																																																																																																																						
DataRate	CameraRate	NumFrames	NumMarkers	Units	OrigDataRate	OrigDataStartFrame	OrigNumFrames																																																																																																																		
100	100	4	40	mm	100	1501	3000																																																																																																																		
Frame#	Time	R.ASIS			R.PSIS			S2			L.PSIS			L.ASIS			R.TH1			R.TH2			R.TH3			R.MKnee			R.Knee			R.SH1			R.SH2			R.SH3			R.SH4			R.Ankle			R.MAnkle			R.Heel			R.MT5			R.MT1			L.TH1			L.TH2			L.TH3			L.TH4			L.MKnee			L.Knee			L.SH1			L.SH2			L.SH3			L.Ankle			L.MAnkle			L.Heel			L.MT5			L.MT1			R.Acr			L.Acr			C7			T10			Clav			Sternum			R.Back		
		X1	Y1	Z1	X2	Y2	Z2	X3	Y3	Z3	X4	Y4	Z4	X5	Y5	Z5	X6	Y6	Z6	X7	Y7	Z7	X8	Y8	Z8	X9	Y9	Z9	X10	Y10	Z10	X11	Y11	Z11	X12	Y12	Z12	X13	Y13	Z13	X14	Y14	Z14	X15	Y15	Z15	X16	Y16	Z16	X17	Y17	Z17	X18	Y18	Z18	X19	Y19	Z19	X20	Y20	Z20	X21	Y21	Z21	X22	Y22	Z22	X23	Y23	Z23	X24	Y24	Z24	X25	Y25	Z25	X26	Y26	Z26	X27	Y27	Z27	X28	Y28	Z28	X29	Y29	Z29	X30	Y30	Z30	X31	Y31	Z31	X32	Y32	Z32	X33	Y33	Z33	X34	Y34	Z34	X35	Y35	Z35	X36	Y36	Z36	X37	Y37	Z37	X38	Y38	Z38	X39	Y39	Z39	X40	Y40	Z40
1501	15	1038.6854	1055.6287	-406.6849	842.3018	1052.3347	-480.4808	829.8029	1046.2008	-524.4823	829.674	1051.0802	-574.9076	997.2302	1039.0863	-698.5511	1095.0057	742.959	-390.8856	1018.0627	715.4501	-379.4595	1052.1071	612.7296	-400.4021	1099.026	510.7951	-532.4029	1113.5955	510.9955	-417.1527	1136.4235	345.4171	-421.0208	1143.6797	235.034	-442.8426	1056.2339	337.2872	-402.4339	1069.0381	225.3592	-415.9606	1090.3212	74.0286	-433.8565	1126.1272	94.0548	-527.1466	1031.3406	34.6295	-492.1262	1205.99	38.7222	-406.7596	1255.7078	39.701	-494.8378	999.8348	737.9444	-712.881	994.3972	628.8769	-710.8674	916.0424	738.1216	-721.6832	914.8285	628.4411	-711.3509	971.8678	470.4549	-601.6814	952.1448	487.4797	-712.6107	858.7987	387.8294	-728.0688	807.5	452.117	-718.7138	724.7718	380.4403	-711.0819	603.2189	207.7112	-716.2604	633.1813	195.2679	-621.2524	541.7078	249.0677	-660.1945	612.0361	88.9622	-725.6858	648.2849	76.5511	-621.7409	971.7296	1445.9794	-386.3321	943.3421	1437.9799	-710.1199	899.0771	1483.8296	-548.7278	866.6585	1156.2778	-539.9224	1037.3005	1389.7705	-555.6211	1066.1774	1246.3254	-549.0207	826.9615	1386.6011	-461.2405
1502	15.01	1038.7151	1057.251	-405.0778	842.176	1053.9707	-479.3126	829.6588	1047.6946	-523.3278	829.5035	1052.3812	-573.7584	996.8068	1040.6556	-697.1819	1092.1522	742.912	-389.7314	1014.6663	716.5368	-378.5196	1047.2966	613.3418	-399.6097	1092.8463	510.9451	-531.7908	1107.3462	510.7847	-416.5175	1128.0657	344.8249	-420.7795	1133.9277	234.4045	-442.6954	1047.8507	337.7165	-402.1461	1059.1814	225.6687	-415.8873	1078.334	74.2099	-434.0225	1114.055	94.106	-527.4563	1019.3874	34.6249	-492.2125	1193.9553	38.792	-406.7717	1243.6805	39.7362	-494.827	1006.2826	740.3727	-711.6019	1003.7199	631.2117	-709.9229	922.5634	738.353	-720.8092	924.1383	628.6676	-710.9102	984.3483	472.3171	-600.7609	965.4291	489.1034	-712.3453	871.4164	390.6653	-727.7357	821.3453	456.1224	-719.1807	737.0986	386.1592	-711.5828	612.5892	218.1072	-716.66	640.7786	204.0837	-621.3234	552.3149	262.6581	-661.2375	615.7707	98.6984	-725.6987	650.3762	82.8241	-622.1545	972.7742	1447.8845	-385.0571	942.2732	1439.4936	-708.6934	899.0258	1485.6137	-546.9866	866.8506	1158.0505	-538.1699	1037.2682	1391.5525	-554.5904	1066.1248	1248.0636	-547.9748	827.4929	1388.4154	-458.8099
1503	15.02	1038.5653	1058.8915	-403.5778	841.8967	1055.7091	-478.3158	829.4455	1049.3165	-522.3575	829.2443	1053.8564	-572.7759	996.3158	1042.3844	-695.9137	1089.104	742.9077	-388.8053	1011.1194	717.6801	-377.581	1042.299	614.0229	-398.7113	1086.1732	511.0007	-531.1538	1100.7336	510.5748	-415.8661	1119.4786	344.2845	-420.4859	1124.0597	233.8515	-442.5072	1039.2793	338.1204	-401.6569	1049.2432	225.9738	-415.6444	1066.3296	74.3597	-434.115	1101.958	94.1848	-527.6924	1007.4311	34.644	-492.2736	1181.9233	38.8358	-406.7715	1231.6296	39.7747	-494.8032	1012.4185	743.2172	-710.3552	1012.7782	634.0559	-708.9136	928.837	738.9712	-719.8731	933.249	629.3667	-710.2899	996.5548	474.7541	-599.6459	978.4769	491.2893	-711.9019	884.0955	393.7825	-727.1617	835.0225	460.2011	-719.4561	749.537	391.6656	-711.9708	622.6726	227.5341	-716.8572	649.4396	212.3091	-621.2296	563.2603	274.2057	-661.9116	621.9182	107.769	-725.6555	655.1988	89.1275	-622.5872	973.7134	1449.791	-383.8866	941.0317	1441.0147	-707.3677	898.899	1487.4341	-545.3234	866.9016	1159.8842	-536.491	1037.1339	1393.3084	-553.6663	1065.911	1249.7681	-547.0535	827.8887	1390.2963	-456.4892
1504	15.03	1038.2582	1060.5316	-402.1683	841.4885	1057.5269	-477.4657	829.2076	1051.0521	-521.5541	828.9207	1055.4969	-571.9408	995.8273	1044.3102	-694.7052	1085.8959	742.928	-388.0615	1007.4619	718.8589	-376.6261	1037.1451	614.7523	-397.7121	1079.053	510.9736	-530.4901	1093.8218	510.3595	-415.1938	1110.7008	343.789	-420.133	1114.1005	233.3649	-442.289	1030.5389	338.4965	-401.0084	1039.2351	226.271	-415.2675	1054.3361	74.4804	-434.1462	1089.8878	94.2727	-527.8514	995.4854	34.6881	-492.3059	1169.9001	38.848	-406.7546	1219.5691	39.797	-494.7618	1018.1741	746.4483	-709.1516	1021.4959	637.3798	-707.8851	934.7918	739.9565	-718.8743	942.0823	630.5175	-709.5273	1008.4852	477.6946	-598.4036	991.2019	493.9978	-711.3184	896.7136	397.1632	-726.4171	848.3898	464.3134	-719.5045	761.9612	396.8781	-712.2179	633.2816	235.7533	-716.8834	659.1082	219.7004	-621.0283	574.2612	283.413	-662.2098	630.4555	115.8436	-725.6434	662.9102	95.2375	-623.0562	974.5286	1451.7191	-382.811	939.6367	1442.5524	-706.1267	898.6888	1489.2682	-543.7377	866.8321	1161.7535	-534.8777	1036.8988	1395.04	-552.8381	1065.5607	1251.4525	-546.2403	828.1598	1392.22	-454.2896
